<?xml version="1.0" encoding="UTF-8" standalone="no"?>
<svg width="45px" height="44px" viewBox="0 0 45 44" version="1.1" xmlns="http://www.w3.org/2000/svg" xmlns:xlink="http://www.w3.org/1999/xlink" xmlns:sketch="http://www.bohemiancoding.com/sketch/ns">
    <!-- Generator: Sketch 3.3.2 (12043) - http://www.bohemiancoding.com/sketch -->
    <title>Untitled 2</title>
    <desc>Created with Sketch.</desc>
    <defs></defs>
    <g id="Page-1" stroke="none" stroke-width="1" fill="none" fill-rule="evenodd" sketch:type="MSPage">
        <g id="Cloud-Drizzle-Alt" sketch:type="MSLayerGroup" fill="#FFFFFF">
            <path d="M32.943,8.642 C32.247,8.642 31.574,8.734 30.91,8.847 C28.174,3.955 22.949,0.644 16.945,0.644 C8.11,0.644 0.947,7.806 0.947,16.641 C0.947,22.633 4.247,27.848 9.124,30.588 C9.4,29.326 10.016,28.123 10.997,27.143 L11.054,27.086 C7.41,25.025 4.948,21.123 4.948,16.641 C4.948,10.015 10.32,4.643 16.946,4.643 C22.637,4.643 27.379,8.617 28.611,13.933 C29.861,13.123 31.344,12.642 32.944,12.642 C37.362,12.642 40.943,16.223 40.943,20.641 C40.943,24.084 38.761,27.012 35.708,28.139 C36.496,29.285 36.902,30.61 36.93,31.946 C41.595,30.301 44.944,25.868 44.944,20.641 C44.942,14.014 39.57,8.642 32.943,8.642 L32.943,8.642 Z M15.945,27.85 L13.824,29.971 C12.653,31.143 12.653,33.041 13.824,34.213 C14.996,35.385 16.895,35.385 18.066,34.213 C19.238,33.041 19.238,31.143 18.066,29.971 L15.945,27.85 L15.945,27.85 Z M22.945,35.848 L20.824,37.969 C19.652,39.141 19.652,41.041 20.824,42.211 C21.995,43.383 23.894,43.383 25.065,42.211 C26.237,41.041 26.237,39.141 25.065,37.969 L22.945,35.848 L22.945,35.848 Z M29.944,27.85 L27.823,29.971 C26.651,31.143 26.651,33.041 27.823,34.213 C28.994,35.385 30.893,35.385 32.065,34.213 C33.236,33.041 33.236,31.143 32.065,29.971 L29.944,27.85 L29.944,27.85 Z" id="Shape" sketch:type="MSShapeGroup"></path>
        </g>
    </g>
</svg>