<?xml version="1.0" encoding="UTF-8" standalone="no"?>
<svg width="16px" height="37px" viewBox="0 0 16 37" version="1.1" xmlns="http://www.w3.org/2000/svg" xmlns:xlink="http://www.w3.org/1999/xlink" xmlns:sketch="http://www.bohemiancoding.com/sketch/ns">
    <!-- Generator: Sketch 3.3.2 (12043) - http://www.bohemiancoding.com/sketch -->
    <title>Thermometer-50-white</title>
    <desc>Created with Sketch.</desc>
    <defs></defs>
    <g id="Page-1" stroke="none" stroke-width="1" fill="none" fill-rule="evenodd" sketch:type="MSPage">
        <g id="Thermometer-50" sketch:type="MSLayerGroup" fill="#FFFFFF">
            <path d="M8,36.867 C3.582,36.867 0,33.285 0,28.867 C0,26.842 0.76,24.998 2,23.588 L2,6.871 C2,3.558 4.686,0.871 8,0.871 C11.312,0.871 13.998,3.558 13.998,6.871 L13.998,23.588 C15.24,24.998 15.998,26.842 15.998,28.867 C15.998,33.285 12.418,36.867 8,36.867 L8,36.867 Z M10,25.422 L10,21.131 L10,10.87 L10,6.871 C10,5.767 9.104,4.871 8,4.871 C6.895,4.871 6,5.767 6,6.871 L6,10.87 L6,21.131 L6,25.422 C4.809,26.115 4,27.391 4,28.867 C4,31.076 5.791,32.867 8,32.867 C10.209,32.867 12,31.076 12,28.867 C12,27.391 11.189,26.115 10,25.422 L10,25.422 Z M8,31.867 C6.344,31.867 5,30.523 5,28.867 C5,27.562 5.838,26.465 7,26.051 L7,15.806 L9,15.806 L9,26.051 C10.162,26.465 11,27.563 11,28.867 C11,30.523 9.656,31.867 8,31.867 L8,31.867 Z" id="Shape" sketch:type="MSShapeGroup"></path>
        </g>
    </g>
</svg>