<?xml version="1.0" encoding="UTF-8" standalone="no"?>
<svg width="44px" height="28px" viewBox="0 0 44 28" version="1.1" xmlns="http://www.w3.org/2000/svg" xmlns:xlink="http://www.w3.org/1999/xlink" xmlns:sketch="http://www.bohemiancoding.com/sketch/ns">
    <!-- Generator: Sketch 3.3.2 (12043) - http://www.bohemiancoding.com/sketch -->
    <title>Untitled</title>
    <desc>Created with Sketch.</desc>
    <defs></defs>
    <g id="Page-1" stroke="none" stroke-width="1" fill="none" fill-rule="evenodd" sketch:type="MSPage">
        <g id="Wind" sketch:type="MSLayerGroup" fill="#FFFFFF">
            <path d="M37.999,16 L37.999,16 L34.999,16 C33.894,16 32.999,15.105 32.999,14.001 C32.999,12.897 33.894,12.001 34.999,12.001 L37.999,12.001 C39.103,12.001 39.999,11.105 39.999,10.002 C39.999,8.897 39.103,8.002 37.999,8.002 C36.894,8.002 35.999,7.106 35.999,6.002 C35.999,4.898 36.894,4.002 37.999,4.002 C38.136,4.002 38.27,4.016 38.401,4.043 C41.522,4.254 43.997,6.826 43.997,10.002 C43.997,13.314 41.312,16 37.999,16 L37.999,16 Z M27.999,12.001 L25.999,12.001 L19.001,12.001 L6.002,12.001 C4.898,12.001 4.003,12.897 4.003,14.001 C4.003,15.105 4.898,16 6.002,16 L8.002,16 L12.001,16 L15.001,16 L19.001,16 L22.001,16 L25.999,16 L27.999,16 C31.313,16 33.999,18.687 33.999,22 C33.999,25.176 31.524,27.748 28.403,27.959 C28.272,27.986 28.138,28 27.999,28 C26.895,28 25.999,27.104 25.999,26 C25.999,24.895 26.895,24 27.999,24 C29.104,24 29.999,23.104 29.999,22 C29.999,20.896 29.104,20 27.999,20 L25.999,20 L22.001,20 L19.001,20 L15.001,20 L12.001,20 L8.002,20 L6.002,20 C2.689,20 0.003,17.314 0.003,14.001 C0.003,10.826 2.478,8.254 5.599,8.042 C5.73,8.016 5.865,8.002 6.002,8.002 L6.002,8.002 L19.001,8.002 L25.999,8.002 L27.999,8.002 C29.104,8.002 29.999,7.106 29.999,6.002 C29.999,4.898 29.104,4.002 27.999,4.002 C26.895,4.002 25.999,3.107 25.999,2.002 C25.999,0.898 26.895,0.002 27.999,0.002 C28.138,0.002 28.272,0.017 28.403,0.043 C31.524,0.254 33.999,2.826 33.999,6.002 C33.999,9.314 31.313,12.001 27.999,12.001 L27.999,12.001 Z" id="Shape" sketch:type="MSShapeGroup"></path>
        </g>
    </g>
</svg>